<svg version="1.1" xmlns="http://www.w3.org/2000/svg" xmlns:xlink="http://www.w3.org/1999/xlink" width="576" height="268.83871" viewBox="744,263.58065,576,268.83871"><g fill="none" fill-rule="nonzero" stroke="none" stroke-width="1" stroke-linecap="butt" stroke-linejoin="miter" stroke-miterlimit="10" stroke-dasharray="" stroke-dashoffset="0" font-family="none" font-weight="none" font-size="none" text-anchor="none" style="mix-blend-mode: normal"><g id="Layer_1"><path d="M744,397.90323v134.51613l38.32258,-38.32258h537.67742v-96.19355z" fill="#ffffff"/><path d="M1320,397.90323v-134.32258l-38.32258,38.32258h-537.67742v96z" fill="#00a6de"/><g fill="#ffffff"><rect x="400.6" y="188.88333" transform="scale(1.93548,1.93548)" width="2.8" height="2.8"/><rect x="400.6" y="185.08333" transform="scale(1.93548,1.93548)" width="2.8" height="2.8"/><rect x="400.6" y="171.88333" transform="scale(1.93548,1.93548)" width="2.8" height="2.8"/><rect x="400.6" y="168.08333" transform="scale(1.93548,1.93548)" width="2.8" height="2.8"/><rect x="404.4" y="190.68333" transform="scale(1.93548,1.93548)" width="2.8" height="2.8"/><rect x="404.4" y="168.08333" transform="scale(1.93548,1.93548)" width="2.8" height="2.8"/><rect x="408.1" y="190.68333" transform="scale(1.93548,1.93548)" width="2.8" height="2.8"/><rect x="408.1" y="168.08333" transform="scale(1.93548,1.93548)" width="2.8" height="2.8"/><rect x="411.9" y="190.68333" transform="scale(1.93548,1.93548)" width="2.8" height="2.8"/><rect x="411.9" y="168.08333" transform="scale(1.93548,1.93548)" width="2.8" height="2.8"/><rect x="415.6" y="188.88333" transform="scale(1.93548,1.93548)" width="2.8" height="2.8"/><rect x="415.6" y="185.08333" transform="scale(1.93548,1.93548)" width="2.8" height="2.8"/><rect x="415.6" y="181.28333" transform="scale(1.93548,1.93548)" width="2.8" height="2.8"/><rect x="415.6" y="177.48333" transform="scale(1.93548,1.93548)" width="2.8" height="2.8"/><rect x="415.6" y="173.78333" transform="scale(1.93548,1.93548)" width="2.8" height="2.8"/><rect x="415.6" y="169.98333" transform="scale(1.93548,1.93548)" width="2.8" height="2.8"/><rect x="423.1" y="186.98333" transform="scale(1.93548,1.93548)" width="2.8" height="2.8"/><rect x="423.1" y="183.18333" transform="scale(1.93548,1.93548)" width="2.8" height="2.8"/><rect x="423.1" y="179.38333" transform="scale(1.93548,1.93548)" width="2.8" height="2.8"/><rect x="423.1" y="175.68333" transform="scale(1.93548,1.93548)" width="2.8" height="2.8"/><rect x="423.1" y="171.88333" transform="scale(1.93548,1.93548)" width="2.8" height="2.8"/><rect x="423.1" y="168.08333" transform="scale(1.93548,1.93548)" width="2.8" height="2.8"/><rect x="426.9" y="190.68333" transform="scale(1.93548,1.93548)" width="2.8" height="2.8"/><rect x="430.6" y="190.68333" transform="scale(1.93548,1.93548)" width="2.8" height="2.8"/><rect x="434.4" y="190.68333" transform="scale(1.93548,1.93548)" width="2.8" height="2.8"/><rect x="438.1" y="186.98333" transform="scale(1.93548,1.93548)" width="2.8" height="2.8"/><rect x="438.1" y="183.18333" transform="scale(1.93548,1.93548)" width="2.8" height="2.8"/><rect x="438.1" y="179.38333" transform="scale(1.93548,1.93548)" width="2.8" height="2.8"/><rect x="438.1" y="175.68333" transform="scale(1.93548,1.93548)" width="2.8" height="2.8"/><rect x="438.1" y="171.88333" transform="scale(1.93548,1.93548)" width="2.8" height="2.8"/><rect x="438.1" y="168.08333" transform="scale(1.93548,1.93548)" width="2.8" height="2.8"/><rect x="445.6" y="188.88333" transform="scale(1.93548,1.93548)" width="2.8" height="2.8"/><rect x="445.6" y="185.08333" transform="scale(1.93548,1.93548)" width="2.8" height="2.8"/><rect x="445.6" y="181.28333" transform="scale(1.93548,1.93548)" width="2.8" height="2.8"/><rect x="445.6" y="177.48333" transform="scale(1.93548,1.93548)" width="2.8" height="2.8"/><rect x="445.6" y="173.78333" transform="scale(1.93548,1.93548)" width="2.8" height="2.8"/><rect x="445.6" y="169.98333" transform="scale(1.93548,1.93548)" width="2.8" height="2.8"/><rect x="449.4" y="190.68333" transform="scale(1.93548,1.93548)" width="2.8" height="2.8"/><rect x="449.4" y="168.08333" transform="scale(1.93548,1.93548)" width="2.8" height="2.8"/><rect x="453.1" y="190.68333" transform="scale(1.93548,1.93548)" width="2.8" height="2.8"/><rect x="453.1" y="181.28333" transform="scale(1.93548,1.93548)" width="2.8" height="2.8"/><rect x="453.1" y="168.08333" transform="scale(1.93548,1.93548)" width="2.8" height="2.8"/><rect x="456.9" y="190.68333" transform="scale(1.93548,1.93548)" width="2.8" height="2.8"/><rect x="456.9" y="181.28333" transform="scale(1.93548,1.93548)" width="2.8" height="2.8"/><rect x="456.9" y="168.08333" transform="scale(1.93548,1.93548)" width="2.8" height="2.8"/><rect x="460.6" y="188.88333" transform="scale(1.93548,1.93548)" width="2.8" height="2.8"/><rect x="460.6" y="185.08333" transform="scale(1.93548,1.93548)" width="2.8" height="2.8"/><rect x="460.6" y="181.28333" transform="scale(1.93548,1.93548)" width="2.8" height="2.8"/><rect x="460.6" y="169.98333" transform="scale(1.93548,1.93548)" width="2.8" height="2.8"/><rect x="468.1" y="188.88333" transform="scale(1.93548,1.93548)" width="2.8" height="2.8"/><rect x="468.1" y="185.08333" transform="scale(1.93548,1.93548)" width="2.8" height="2.8"/><rect x="468.1" y="181.28333" transform="scale(1.93548,1.93548)" width="2.8" height="2.8"/><rect x="468.1" y="177.48333" transform="scale(1.93548,1.93548)" width="2.8" height="2.8"/><rect x="468.1" y="173.78333" transform="scale(1.93548,1.93548)" width="2.8" height="2.8"/><rect x="468.1" y="169.98333" transform="scale(1.93548,1.93548)" width="2.8" height="2.8"/><rect x="471.8" y="190.68333" transform="scale(1.93548,1.93548)" width="2.8" height="2.8"/><rect x="471.8" y="179.38333" transform="scale(1.93548,1.93548)" width="2.8" height="2.8"/><rect x="471.8" y="168.08333" transform="scale(1.93548,1.93548)" width="2.8" height="2.8"/><rect x="475.6" y="190.68333" transform="scale(1.93548,1.93548)" width="2.8" height="2.8"/><rect x="475.6" y="179.38333" transform="scale(1.93548,1.93548)" width="2.8" height="2.8"/><rect x="475.6" y="168.08333" transform="scale(1.93548,1.93548)" width="2.8" height="2.8"/><rect x="479.3" y="190.68333" transform="scale(1.93548,1.93548)" width="2.8" height="2.8"/><rect x="479.3" y="179.38333" transform="scale(1.93548,1.93548)" width="2.8" height="2.8"/><rect x="479.3" y="168.08333" transform="scale(1.93548,1.93548)" width="2.8" height="2.8"/><rect x="483.1" y="190.68333" transform="scale(1.93548,1.93548)" width="2.8" height="2.8"/><rect x="483.1" y="168.08333" transform="scale(1.93548,1.93548)" width="2.8" height="2.8"/><rect x="490.6" y="190.68333" transform="scale(1.93548,1.93548)" width="2.8" height="2.8"/><rect x="490.6" y="186.98333" transform="scale(1.93548,1.93548)" width="2.8" height="2.8"/><rect x="490.6" y="183.18333" transform="scale(1.93548,1.93548)" width="2.8" height="2.8"/><rect x="490.6" y="179.38333" transform="scale(1.93548,1.93548)" width="2.8" height="2.8"/><rect x="490.6" y="175.68333" transform="scale(1.93548,1.93548)" width="2.8" height="2.8"/><rect x="490.6" y="171.88333" transform="scale(1.93548,1.93548)" width="2.8" height="2.8"/><rect x="490.6" y="168.08333" transform="scale(1.93548,1.93548)" width="2.8" height="2.8"/><rect x="494.3" y="175.68333" transform="scale(1.93548,1.93548)" width="2.8" height="2.8"/><rect x="498.1" y="179.38333" transform="scale(1.93548,1.93548)" width="2.8" height="2.8"/><rect x="501.8" y="183.18333" transform="scale(1.93548,1.93548)" width="2.8" height="2.8"/><rect x="505.6" y="190.68333" transform="scale(1.93548,1.93548)" width="2.8" height="2.8"/><rect x="505.6" y="186.98333" transform="scale(1.93548,1.93548)" width="2.8" height="2.8"/><rect x="505.6" y="183.18333" transform="scale(1.93548,1.93548)" width="2.8" height="2.8"/><rect x="505.6" y="179.38333" transform="scale(1.93548,1.93548)" width="2.8" height="2.8"/><rect x="505.6" y="175.68333" transform="scale(1.93548,1.93548)" width="2.8" height="2.8"/><rect x="505.6" y="171.88333" transform="scale(1.93548,1.93548)" width="2.8" height="2.8"/><rect x="505.6" y="168.08333" transform="scale(1.93548,1.93548)" width="2.8" height="2.8"/><rect x="513.1" y="190.68333" transform="scale(1.93548,1.93548)" width="2.8" height="2.8"/><rect x="513.1" y="186.98333" transform="scale(1.93548,1.93548)" width="2.8" height="2.8"/><rect x="513.1" y="183.18333" transform="scale(1.93548,1.93548)" width="2.8" height="2.8"/><rect x="513.1" y="179.38333" transform="scale(1.93548,1.93548)" width="2.8" height="2.8"/><rect x="513.1" y="175.68333" transform="scale(1.93548,1.93548)" width="2.8" height="2.8"/><rect x="513.1" y="171.88333" transform="scale(1.93548,1.93548)" width="2.8" height="2.8"/><rect x="513.1" y="168.08333" transform="scale(1.93548,1.93548)" width="2.8" height="2.8"/><rect x="516.8" y="190.68333" transform="scale(1.93548,1.93548)" width="2.8" height="2.8"/><rect x="516.8" y="168.08333" transform="scale(1.93548,1.93548)" width="2.8" height="2.8"/><rect x="520.6" y="190.68333" transform="scale(1.93548,1.93548)" width="2.8" height="2.8"/><rect x="520.6" y="168.08333" transform="scale(1.93548,1.93548)" width="2.8" height="2.8"/><rect x="524.3" y="190.68333" transform="scale(1.93548,1.93548)" width="2.8" height="2.8"/><rect x="524.3" y="168.08333" transform="scale(1.93548,1.93548)" width="2.8" height="2.8"/><rect x="528.1" y="188.88333" transform="scale(1.93548,1.93548)" width="2.8" height="2.8"/><rect x="528.1" y="185.08333" transform="scale(1.93548,1.93548)" width="2.8" height="2.8"/><rect x="528.1" y="181.28333" transform="scale(1.93548,1.93548)" width="2.8" height="2.8"/><rect x="528.1" y="177.48333" transform="scale(1.93548,1.93548)" width="2.8" height="2.8"/><rect x="528.1" y="173.78333" transform="scale(1.93548,1.93548)" width="2.8" height="2.8"/><rect x="528.1" y="169.98333" transform="scale(1.93548,1.93548)" width="2.8" height="2.8"/><rect x="558.1" y="190.68333" transform="scale(1.93548,1.93548)" width="2.8" height="2.8"/><rect x="558.1" y="186.98333" transform="scale(1.93548,1.93548)" width="2.8" height="2.8"/><rect x="558.1" y="183.18333" transform="scale(1.93548,1.93548)" width="2.8" height="2.8"/><rect x="558.1" y="179.38333" transform="scale(1.93548,1.93548)" width="2.8" height="2.8"/><rect x="558.1" y="175.68333" transform="scale(1.93548,1.93548)" width="2.8" height="2.8"/><rect x="558.1" y="171.88333" transform="scale(1.93548,1.93548)" width="2.8" height="2.8"/><rect x="558.1" y="168.08333" transform="scale(1.93548,1.93548)" width="2.8" height="2.8"/><rect x="561.8" y="179.38333" transform="scale(1.93548,1.93548)" width="2.8" height="2.8"/><rect x="565.5" y="179.38333" transform="scale(1.93548,1.93548)" width="2.8" height="2.8"/><rect x="569.3" y="179.38333" transform="scale(1.93548,1.93548)" width="2.8" height="2.8"/><rect x="573" y="190.68333" transform="scale(1.93548,1.93548)" width="2.8" height="2.8"/><rect x="573" y="186.98333" transform="scale(1.93548,1.93548)" width="2.8" height="2.8"/><rect x="573" y="183.18333" transform="scale(1.93548,1.93548)" width="2.8" height="2.8"/><rect x="573" y="179.38333" transform="scale(1.93548,1.93548)" width="2.8" height="2.8"/><rect x="573" y="175.68333" transform="scale(1.93548,1.93548)" width="2.8" height="2.8"/><rect x="573" y="171.88333" transform="scale(1.93548,1.93548)" width="2.8" height="2.8"/><rect x="573" y="168.08333" transform="scale(1.93548,1.93548)" width="2.8" height="2.8"/><rect x="580.5" y="190.68333" transform="scale(1.93548,1.93548)" width="2.8" height="2.8"/><rect x="580.5" y="186.98333" transform="scale(1.93548,1.93548)" width="2.8" height="2.8"/><rect x="580.5" y="183.18333" transform="scale(1.93548,1.93548)" width="2.8" height="2.8"/><rect x="580.5" y="179.38333" transform="scale(1.93548,1.93548)" width="2.8" height="2.8"/><rect x="580.5" y="175.68333" transform="scale(1.93548,1.93548)" width="2.8" height="2.8"/><rect x="580.5" y="171.88333" transform="scale(1.93548,1.93548)" width="2.8" height="2.8"/><rect x="584.3" y="181.28333" transform="scale(1.93548,1.93548)" width="2.8" height="2.8"/><rect x="584.3" y="169.08333" transform="scale(1.93548,1.93548)" width="2.8" height="2.8"/><rect x="588" y="181.28333" transform="scale(1.93548,1.93548)" width="2.8" height="2.8"/><rect x="588" y="168.08333" transform="scale(1.93548,1.93548)" width="2.8" height="2.8"/><rect x="591.8" y="181.28333" transform="scale(1.93548,1.93548)" width="2.8" height="2.8"/><rect x="591.8" y="169.08333" transform="scale(1.93548,1.93548)" width="2.8" height="2.8"/><rect x="595.5" y="190.68333" transform="scale(1.93548,1.93548)" width="2.8" height="2.8"/><rect x="595.5" y="186.98333" transform="scale(1.93548,1.93548)" width="2.8" height="2.8"/><rect x="595.5" y="183.18333" transform="scale(1.93548,1.93548)" width="2.8" height="2.8"/><rect x="595.5" y="179.38333" transform="scale(1.93548,1.93548)" width="2.8" height="2.8"/><rect x="595.5" y="175.68333" transform="scale(1.93548,1.93548)" width="2.8" height="2.8"/><rect x="595.5" y="171.88333" transform="scale(1.93548,1.93548)" width="2.8" height="2.8"/><rect x="603" y="188.88333" transform="scale(1.93548,1.93548)" width="2.8" height="2.8"/><rect x="603" y="185.08333" transform="scale(1.93548,1.93548)" width="2.8" height="2.8"/><rect x="603" y="181.28333" transform="scale(1.93548,1.93548)" width="2.8" height="2.8"/><rect x="603" y="177.48333" transform="scale(1.93548,1.93548)" width="2.8" height="2.8"/><rect x="603" y="173.78333" transform="scale(1.93548,1.93548)" width="2.8" height="2.8"/><rect x="603" y="169.98333" transform="scale(1.93548,1.93548)" width="2.8" height="2.8"/><rect x="606.8" y="190.68333" transform="scale(1.93548,1.93548)" width="2.8" height="2.8"/><rect x="606.8" y="168.08333" transform="scale(1.93548,1.93548)" width="2.8" height="2.8"/><rect x="610.5" y="190.68333" transform="scale(1.93548,1.93548)" width="2.8" height="2.8"/><rect x="610.5" y="168.08333" transform="scale(1.93548,1.93548)" width="2.8" height="2.8"/><rect x="614.3" y="190.68333" transform="scale(1.93548,1.93548)" width="2.8" height="2.8"/><rect x="614.3" y="168.08333" transform="scale(1.93548,1.93548)" width="2.8" height="2.8"/><rect x="618" y="188.88333" transform="scale(1.93548,1.93548)" width="2.8" height="2.8"/><rect x="618" y="169.98333" transform="scale(1.93548,1.93548)" width="2.8" height="2.8"/><rect x="625.5" y="190.68333" transform="scale(1.93548,1.93548)" width="2.8" height="2.8"/><rect x="625.5" y="186.98333" transform="scale(1.93548,1.93548)" width="2.8" height="2.8"/><rect x="625.5" y="183.18333" transform="scale(1.93548,1.93548)" width="2.8" height="2.8"/><rect x="625.5" y="179.38333" transform="scale(1.93548,1.93548)" width="2.8" height="2.8"/><rect x="625.5" y="175.68333" transform="scale(1.93548,1.93548)" width="2.8" height="2.8"/><rect x="625.5" y="171.88333" transform="scale(1.93548,1.93548)" width="2.8" height="2.8"/><rect x="625.5" y="168.08333" transform="scale(1.93548,1.93548)" width="2.8" height="2.8"/><rect x="629.3" y="179.38333" transform="scale(1.93548,1.93548)" width="2.8" height="2.8"/><rect x="633" y="183.18333" transform="scale(1.93548,1.93548)" width="2.8" height="2.8"/><rect x="633" y="175.68333" transform="scale(1.93548,1.93548)" width="2.8" height="2.8"/><rect x="636.8" y="186.98333" transform="scale(1.93548,1.93548)" width="2.8" height="2.8"/><rect x="636.8" y="171.88333" transform="scale(1.93548,1.93548)" width="2.8" height="2.8"/><rect x="640.5" y="190.68333" transform="scale(1.93548,1.93548)" width="2.8" height="2.8"/><rect x="640.5" y="168.08333" transform="scale(1.93548,1.93548)" width="2.8" height="2.8"/><rect x="648" y="168.08333" transform="scale(1.93548,1.93548)" width="2.8" height="2.8"/><rect x="651.8" y="168.08333" transform="scale(1.93548,1.93548)" width="2.8" height="2.8"/><rect x="655.5" y="190.68333" transform="scale(1.93548,1.93548)" width="2.8" height="2.8"/><rect x="655.5" y="186.98333" transform="scale(1.93548,1.93548)" width="2.8" height="2.8"/><rect x="655.5" y="183.18333" transform="scale(1.93548,1.93548)" width="2.8" height="2.8"/><rect x="655.5" y="179.38333" transform="scale(1.93548,1.93548)" width="2.8" height="2.8"/><rect x="655.5" y="175.68333" transform="scale(1.93548,1.93548)" width="2.8" height="2.8"/><rect x="655.5" y="171.88333" transform="scale(1.93548,1.93548)" width="2.8" height="2.8"/><rect x="655.5" y="168.08333" transform="scale(1.93548,1.93548)" width="2.8" height="2.8"/><rect x="659.2" y="168.08333" transform="scale(1.93548,1.93548)" width="2.8" height="2.8"/><rect x="663" y="168.08333" transform="scale(1.93548,1.93548)" width="2.8" height="2.8"/></g></g><g fill="#f3971b"><path d="M791.40761,462.04967h-16.82697v-27.09677h6.10462v21.9434h10.72234z"/><path d="M802.66469,448.33505v0l-0.66495,2.49357h5.78138l-0.62801,-2.49357c-0.38789,-1.36069 -0.76038,-2.80142 -1.11749,-4.32218c-0.36326,-1.52693 -0.72344,-2.99536 -1.08055,-4.4053v0h-0.16624c-0.33248,1.44073 -0.67419,2.91532 -1.02513,4.42377c-0.34479,1.50845 -0.71113,2.94303 -1.09902,4.30371zM799.09057,462.04967h-6.23392l8.47813,-27.09677h7.36064l8.47813,27.09677h-6.48328l-1.66238,-6.44634h-8.27495z"/><path d="M830.62867,462.04967h-10.05739v-27.09677h9.27238c1.40994,0 2.7183,0.10467 3.92506,0.314c1.20676,0.20318 2.2596,0.56952 3.15852,1.09902c0.89892,0.52334 1.60389,1.216 2.11492,2.07797c0.51718,0.85582 0.77578,1.93636 0.77578,3.24164v0c0,0.60954 -0.08312,1.21908 -0.24936,1.82862c-0.16624,0.60954 -0.40328,1.17598 -0.71113,1.69932c-0.30169,0.5295 -0.66803,1.00051 -1.09902,1.41302c-0.43099,0.41867 -0.92354,0.72344 -1.47767,0.91431v0v0.16624c0.69574,0.16624 1.33298,0.42483 1.91174,0.77578c0.58491,0.34479 1.09902,0.77886 1.54232,1.3022c0.4433,0.5295 0.78809,1.14827 1.03437,1.85632c0.25244,0.70189 0.37865,1.51153 0.37865,2.42892v0c0,1.38532 -0.27091,2.57669 -0.81272,3.57411c-0.54181,0.99743 -1.28988,1.82246 -2.24421,2.4751c-0.95433,0.64648 -2.06874,1.1298 -3.34323,1.44996c-1.27449,0.32016 -2.64749,0.48024 -4.11901,0.48024zM826.68514,439.69068v6.10462h2.86299c1.49614,0 2.58284,-0.28938 3.26011,-0.86813c0.68342,-0.58491 1.02513,-1.36069 1.02513,-2.32733v0c0,-1.05284 -0.34787,-1.80091 -1.0436,-2.24421c-0.68958,-0.4433 -1.75473,-0.66495 -3.19546,-0.66495v0zM826.68514,450.3299v6.98199h3.44482c3.35554,0 5.03331,-1.21908 5.03331,-3.65723v0c0,-1.19445 -0.41559,-2.04719 -1.24678,-2.55822c-0.83119,-0.51103 -2.09337,-0.76654 -3.78653,-0.76654v0z"/><path d="M849.20021,449.08312v0c-1.05284,0 -1.93328,-0.36634 -2.64134,-1.09902c-0.70189,-0.73884 -1.05284,-1.64699 -1.05284,-2.72445v0c0,-1.10825 0.35095,-2.02872 1.05284,-2.7614c0.70805,-0.73884 1.5885,-1.10825 2.64134,-1.10825v0c1.05284,0 1.93328,0.36942 2.64134,1.10825c0.70805,0.73268 1.06208,1.65314 1.06208,2.7614v0c0,1.07747 -0.35403,1.98562 -1.06208,2.72445c-0.70805,0.73268 -1.5885,1.09902 -2.64134,1.09902zM849.20021,462.54839v0c-1.05284,0 -1.93328,-0.36634 -2.64134,-1.09902c-0.70189,-0.73884 -1.05284,-1.64699 -1.05284,-2.72445v0c0,-1.10825 0.35095,-2.02872 1.05284,-2.7614c0.70805,-0.73884 1.5885,-1.10825 2.64134,-1.10825v0c1.05284,0 1.93328,0.36942 2.64134,1.10825c0.70805,0.73268 1.06208,1.65314 1.06208,2.7614v0c0,1.07747 -0.35403,1.98562 -1.06208,2.72445c-0.70805,0.73268 -1.5885,1.09902 -2.64134,1.09902z"/><path d="M865.19507,462.04967h-6.10462v-27.09677h6.10462z"/><path d="M880.32179,462.54839v0c-1.7732,0 -3.54025,-0.32632 -5.30114,-0.97896c-1.76089,-0.65264 -3.33399,-1.62852 -4.71931,-2.92763v0l3.491,-4.20212c0.9728,0.83119 2.04719,1.51153 3.22317,2.04103c1.17598,0.52334 2.33349,0.78501 3.47252,0.78501v0c1.27449,0 2.22266,-0.23396 2.84451,-0.70189c0.62185,-0.47409 0.93278,-1.11133 0.93278,-1.91174v0c0,-0.41867 -0.08928,-0.77886 -0.26783,-1.08055c-0.17855,-0.30785 -0.4433,-0.57875 -0.79425,-0.81272c-0.34479,-0.23396 -0.76038,-0.45561 -1.24678,-0.66495c-0.48024,-0.20934 -1.01282,-0.43714 -1.59773,-0.68342v0l-3.52794,-1.49614c-0.69574,-0.27706 -1.36992,-0.63725 -2.02256,-1.08055c-0.64648,-0.4433 -1.22831,-0.96356 -1.7455,-1.56079c-0.51103,-0.59722 -0.91739,-1.28988 -1.21908,-2.07797c-0.30785,-0.78809 -0.46177,-1.68085 -0.46177,-2.67828v0c0,-1.10825 0.23704,-2.15494 0.71113,-3.14005c0.46793,-0.98511 1.13288,-1.84401 1.99485,-2.57669c0.85582,-0.73268 1.87172,-1.30835 3.04769,-1.72703c1.18214,-0.41252 2.47818,-0.61877 3.88812,-0.61877v0c1.58234,0 3.14005,0.30477 4.67313,0.91431c1.53924,0.60954 2.89069,1.49614 4.05436,2.65981v0l-3.11234,3.86041c-0.8866,-0.68958 -1.7732,-1.22216 -2.65981,-1.59773c-0.8866,-0.37557 -1.87172,-0.56336 -2.95534,-0.56336v0c-1.05284,0 -1.89019,0.21549 -2.51204,0.64648c-0.62185,0.43099 -0.93278,1.03437 -0.93278,1.81015v0c0,0.41252 0.10159,0.76654 0.30477,1.06208c0.20934,0.28938 0.50179,0.55105 0.87737,0.78501c0.37557,0.23396 0.81272,0.45561 1.31143,0.66495c0.49871,0.20934 1.03745,0.43714 1.6162,0.68342v0l3.491,1.41302c1.66238,0.66495 2.97073,1.57926 3.92506,2.74292c0.96049,1.16367 1.44073,2.7029 1.44073,4.61772v0c0,1.13288 -0.23089,2.20727 -0.69266,3.22317c-0.45561,1.00974 -1.12057,1.89634 -1.99485,2.65981c-0.86813,0.75731 -1.93944,1.36684 -3.21393,1.82862c-1.27449,0.45561 -2.71522,0.68342 -4.32218,0.68342z"/><path d="M912.97737,462.04967h-17.37186v-27.09677h16.95626v5.15337h-10.8424v5.43967h9.2262v5.11643h-9.2262v6.23392h11.258z"/><path d="M924.65004,462.04967h-5.81833v-27.09677h6.2801l7.06511,13.46527l2.65981,5.98456h0.16624c-0.14161,-1.44073 -0.30169,-3.04769 -0.48024,-4.8209c-0.17855,-1.7732 -0.26783,-3.46329 -0.26783,-5.07026v0v-9.55868h5.81833v27.09677h-6.2801l-7.06511,-13.51145l-2.65981,-5.90144h-0.16624c0.14161,1.49614 0.30169,3.10311 0.48024,4.8209c0.17855,1.71779 0.26783,3.38017 0.26783,4.98714v0z"/><path d="M956.98239,462.04967h-10.05739v-27.09677h9.26314c1.4161,0 2.72445,0.10467 3.92506,0.314c1.20676,0.20318 2.2596,0.56952 3.15852,1.09902c0.90507,0.52334 1.61312,1.216 2.12415,2.07797c0.51103,0.85582 0.76654,1.93636 0.76654,3.24164v0c0,0.60954 -0.08312,1.21908 -0.24936,1.82862c-0.16624,0.60954 -0.4002,1.17598 -0.70189,1.69932c-0.30785,0.5295 -0.67727,1.00051 -1.10825,1.41302c-0.42483,0.41867 -0.91431,0.72344 -1.46843,0.91431v0v0.16624c0.68958,0.16624 1.32682,0.42483 1.91174,0.77578c0.57875,0.34479 1.08978,0.77886 1.53308,1.3022c0.4433,0.5295 0.79117,1.14827 1.0436,1.85632c0.24628,0.70189 0.36942,1.51153 0.36942,2.42892v0c0,1.38532 -0.27091,2.57669 -0.81272,3.57411c-0.53566,0.99743 -1.28373,1.82246 -2.24421,2.4751c-0.95433,0.64648 -2.06874,1.1298 -3.34323,1.44996c-1.27449,0.32016 -2.64441,0.48024 -4.10977,0.48024zM953.02962,439.69068v6.10462h2.87222c1.49614,0 2.58284,-0.28938 3.26011,-0.86813c0.67727,-0.58491 1.0159,-1.36069 1.0159,-2.32733v0c0,-1.05284 -0.34479,-1.80091 -1.03437,-2.24421c-0.69574,-0.4433 -1.76397,-0.66495 -3.2047,-0.66495v0zM953.02962,450.3299v6.98199h3.45405c3.34939,0 5.02408,-1.21908 5.02408,-3.65723v0c0,-1.19445 -0.41559,-2.04719 -1.24678,-2.55822c-0.83119,-0.51103 -2.09029,-0.76654 -3.77729,-0.76654v0z"/><path d="M983.20087,462.54839v0c-3.52178,0 -6.20929,-1.04053 -8.06254,-3.12158c-1.8594,-2.0749 -2.7891,-5.38426 -2.7891,-9.9281v0v-14.54581h6.1508v15.16459c0,2.65981 0.40328,4.51613 1.20984,5.56897c0.8004,1.05284 1.96407,1.57926 3.491,1.57926v0c1.52077,0 2.69675,-0.52642 3.52794,-1.57926c0.83119,-1.05284 1.24678,-2.90916 1.24678,-5.56897v0v-15.16459h5.90144v14.54581c0,4.54384 -0.90815,7.8532 -2.72445,9.9281c-1.81015,2.08105 -4.46072,3.12158 -7.95171,3.12158zM978.50003,432.95804v0c-0.85582,0 -1.55463,-0.27706 -2.09644,-0.83119c-0.54181,-0.55413 -0.81272,-1.24678 -0.81272,-2.07797v0c0,-0.83119 0.27091,-1.52385 0.81272,-2.07797c0.54181,-0.55413 1.24063,-0.83119 2.09644,-0.83119v0c0.86197,0 1.56079,0.27706 2.09644,0.83119c0.54181,0.55413 0.81272,1.24678 0.81272,2.07797v0c0,0.83119 -0.27091,1.52385 -0.81272,2.07797c-0.53566,0.55413 -1.23447,0.83119 -2.09644,0.83119zM987.72624,432.95804v0c-0.85582,0 -1.55463,-0.27706 -2.09644,-0.83119c-0.54181,-0.55413 -0.81272,-1.24678 -0.81272,-2.07797v0c0,-0.83119 0.27091,-1.52385 0.81272,-2.07797c0.54181,-0.55413 1.24063,-0.83119 2.09644,-0.83119v0c0.86197,0 1.56079,0.27706 2.09644,0.83119c0.54181,0.55413 0.81272,1.24678 0.81272,2.07797v0c0,0.83119 -0.27091,1.52385 -0.81272,2.07797c-0.53566,0.55413 -1.23447,0.83119 -2.09644,0.83119z"/><path d="M1012.03298,462.04967h-6.1508v-21.9434h-7.43453v-5.15337h21.02909v5.15337h-7.44376z"/><path d="M1035.59166,462.04967h-6.1508v-21.9434h-7.43453v-5.15337h21.02909v5.15337h-7.44376z"/><path d="M1065.09796,462.04967h-17.37186v-27.09677h16.95626v5.15337h-10.85164v5.43967h9.2262v5.11643h-9.2262v6.23392h11.26723z"/><path d="M1087.77927,462.04967h-16.82697v-27.09677h6.10462v21.9434h10.72234z"/></g></g></svg>